<svg width="48" height="48" viewBox="0 0 48 48" fill="none" xmlns="http://www.w3.org/2000/svg">
<path d="M14.0133 3.75C9.08177 3.74999 4.38215 7.13021 4.54308 12.4856C4.67847 16.9911 5.75192 23.0192 9.42146 29.375C13.0627 35.6817 17.6835 39.8237 21.4693 42.4141C25.9624 45.4885 31.476 43.3521 34.1129 39.0372C35.2634 37.1546 35.0913 34.7491 33.6846 33.0494L31.0457 29.8608C29.776 28.3266 27.7476 27.6429 25.8082 28.0954L22.3866 28.8938C21.6186 29.073 20.9712 28.9028 20.5881 28.5167C18.8935 26.8089 16.9542 23.8402 16.1305 21.5335C15.9359 20.9887 16.1388 20.2648 16.8494 19.6727L19.1731 17.7363C20.8554 16.3344 21.4908 14.0356 20.7674 11.9687L19.1212 7.2656C18.3842 5.15993 16.3969 3.75001 14.166 3.75H14.0133ZM7.04195 12.4105C6.93563 8.87223 10.0472 6.24999 14.0133 6.25L14.166 6.25C15.3346 6.25 16.3755 6.98853 16.7616 8.09151L18.4077 12.7946C18.7867 13.8772 18.4538 15.0814 17.5726 15.8157L15.2489 17.7521C14.0152 18.7802 13.1195 20.5357 13.7761 22.3742C14.7334 25.055 16.8827 28.3317 18.8134 30.2776C19.9701 31.4433 21.5938 31.646 22.9547 31.3284L26.3763 30.53C27.3922 30.293 28.4547 30.6511 29.1198 31.4547L31.7587 34.6433C32.4847 35.5206 32.5734 36.762 31.9797 37.7336C29.8794 41.1704 25.8854 42.4066 22.8811 40.3509C19.3356 37.9249 15.0032 34.0428 11.5865 28.125C8.16095 22.1917 7.16737 16.5843 7.04195 12.4105ZM26.37 19.8661C25.8818 20.3543 25.8818 21.1458 26.37 21.6339C26.8581 22.1221 27.6496 22.1221 28.1377 21.6339L41.5039 8.2678V18.75C41.5039 19.4404 42.0635 20 42.7539 20C43.4442 20 44.0039 19.4404 44.0039 18.75V5.25003C44.0039 4.55968 43.4442 4.00003 42.7539 4.00003H29.2539C28.5635 4.00003 28.0039 4.55968 28.0039 5.25003C28.0039 5.94039 28.5635 6.50003 29.2539 6.50003H39.7361L26.37 19.8661Z" fill="#242424"/>
</svg>
