<svg width="48" height="48" viewBox="0 0 48 48" fill="none" xmlns="http://www.w3.org/2000/svg">
<path d="M24.001 16.4999C19.8588 16.4999 16.501 19.8578 16.501 23.9999C16.501 28.1421 19.8588 31.4999 24.001 31.4999C28.1431 31.4999 31.501 28.1421 31.501 23.9999C31.501 19.8578 28.1431 16.4999 24.001 16.4999ZM19.001 23.9999C19.001 21.2385 21.2396 18.9999 24.001 18.9999C26.7624 18.9999 29.001 21.2385 29.001 23.9999C29.001 26.7614 26.7624 28.9999 24.001 28.9999C21.2396 28.9999 19.001 26.7614 19.001 23.9999ZM19.4952 43.468C20.9737 43.8208 22.4883 43.999 24.0082 43.999C25.5249 43.9974 27.0362 43.8182 28.5112 43.465C28.899 43.3716 29.2486 43.161 29.5123 42.8618C29.7761 42.5626 29.9412 42.1894 29.9852 41.793L30.3232 38.722C30.3804 38.1728 30.6316 37.662 31.0318 37.2816C31.432 36.9012 31.9549 36.6762 32.5062 36.647C32.8728 36.6311 33.2382 36.6995 33.5742 36.847L36.3812 38.078C36.6253 38.1877 36.8896 38.2452 37.1572 38.2469C37.4248 38.2487 37.6898 38.1945 37.9352 38.088C38.1817 37.9827 38.4032 37.8266 38.5852 37.63C40.6492 35.4053 42.1901 32.7475 43.0953 29.851C43.2138 29.4667 43.21 29.0552 43.0847 28.6731C42.9593 28.291 42.7184 27.9573 42.3952 27.718L39.9013 25.878C39.6042 25.6622 39.3624 25.3793 39.1957 25.0522C39.029 24.7251 38.9421 24.3631 38.9421 23.996C38.9421 23.6289 39.029 23.2669 39.1957 22.9398C39.3624 22.6127 39.6042 22.3297 39.9013 22.114L42.3872 20.278C42.7114 20.0383 42.9529 19.7038 43.0783 19.3207C43.2038 18.9376 43.2069 18.5249 43.0872 18.14C42.1818 15.243 40.6391 12.5857 38.5722 10.363C38.2984 10.0703 37.9405 9.86982 37.5478 9.78922C37.1552 9.70861 36.7473 9.75187 36.3803 9.91299L33.5742 11.149C33.2831 11.2802 32.9675 11.3483 32.6482 11.349C32.0721 11.3481 31.5165 11.1345 31.0882 10.7491C30.6598 10.3638 30.3889 9.83385 30.3272 9.26099L29.9873 6.20099C29.9437 5.79937 29.7757 5.42138 29.5068 5.11996C29.2378 4.81855 28.8813 4.60878 28.4873 4.51999C27.02 4.19242 25.5225 4.01847 24.0192 4.00098C22.5053 4.01846 20.9973 4.19274 19.5192 4.521C19.1256 4.60928 18.7694 4.81836 18.5004 5.11905C18.2315 5.41974 18.0633 5.79699 18.0192 6.198L17.6782 9.25998C17.6144 9.83345 17.3413 10.3632 16.9112 10.748C16.472 11.1211 15.9184 11.3328 15.3422 11.348C15.0245 11.3478 14.7102 11.2817 14.4192 11.154L11.6192 9.918C11.251 9.75542 10.8413 9.71157 10.447 9.79257C10.0528 9.87358 9.69353 10.0754 9.41924 10.37C7.35497 12.5931 5.81372 15.2495 4.90824 18.145C4.78867 18.5298 4.79181 18.9423 4.91724 19.3252C5.04268 19.7081 5.28417 20.0425 5.60824 20.282L8.09724 22.118C8.39186 22.3355 8.63144 22.6191 8.79676 22.9459C8.96208 23.2727 9.04856 23.6337 9.04925 24C9.04958 24.3669 8.96358 24.7286 8.79819 25.0561C8.63281 25.3836 8.39268 25.6675 8.09724 25.885L5.60725 27.724C5.28358 27.9633 5.04234 28.2974 4.91692 28.6799C4.79151 29.0624 4.78811 29.4745 4.90723 29.859C5.81076 32.7571 7.3518 35.4162 9.41724 37.641C9.59666 37.8352 9.81464 37.9898 10.0572 38.095C10.302 38.2026 10.5664 38.2581 10.8337 38.2581C11.1011 38.2581 11.3655 38.2026 11.6102 38.095L14.4292 36.858C14.7201 36.7298 15.0344 36.6637 15.3522 36.664H15.3602C15.9341 36.6647 16.4876 36.8765 16.9154 37.2589C17.3432 37.6414 17.6154 38.1678 17.6802 38.738L18.0182 41.795C18.0624 42.1919 18.2279 42.5656 18.4923 42.865C18.7566 43.1644 19.1068 43.375 19.4952 43.468ZM27.5592 41.123C25.219 41.6234 22.7994 41.6234 20.4592 41.123L20.1552 38.461C20.0231 37.2798 19.4607 36.1886 18.5754 35.3955C17.6901 34.6024 16.5438 34.1629 15.3552 34.161H15.3452C14.6823 34.1583 14.0262 34.2945 13.4192 34.561L10.9732 35.634C9.38616 33.8444 8.17515 31.754 7.41224 29.487L9.57824 27.887C10.1884 27.4371 10.6843 26.8502 11.026 26.1736C11.3678 25.497 11.5458 24.7495 11.5458 23.9915C11.5458 23.2334 11.3678 22.486 11.026 21.8094C10.6843 21.1328 10.1884 20.5459 9.57824 20.096L7.41424 18.496C8.17832 16.2316 9.38925 14.1437 10.9752 12.356L13.4072 13.428C14.0154 13.6972 14.6732 13.8358 15.3382 13.835H15.3482C16.5397 13.8327 17.6886 13.3919 18.5758 12.5966C19.463 11.8012 20.0263 10.7071 20.1582 9.52298L20.4582 6.86298C21.6314 6.6279 22.8238 6.50205 24.0202 6.487C25.2073 6.50208 26.3904 6.62762 27.5542 6.862L27.8543 9.521C27.9826 10.705 28.5434 11.8 29.4291 12.596C30.3149 13.3921 31.4633 13.8333 32.6542 13.835C33.3259 13.8509 33.9921 13.7105 34.6002 13.425L37.0303 12.354C38.6172 14.1415 39.8286 16.2299 40.5922 18.495L38.4352 20.088C37.8208 20.5358 37.3209 21.1226 36.9762 21.8003C36.6315 22.478 36.4518 23.2276 36.4518 23.988C36.4518 24.7483 36.6315 25.4979 36.9762 26.1757C37.3209 26.8534 37.8208 27.4401 38.4352 27.888L40.6002 29.488C39.8358 31.752 38.6253 33.8398 37.0402 35.628L34.5993 34.558C33.9047 34.2496 33.147 34.1098 32.3881 34.1501C31.6292 34.1905 30.8907 34.4098 30.2327 34.7901C29.5748 35.1704 29.0161 35.701 28.6024 36.3384C28.1887 36.9759 27.9316 37.7022 27.8522 38.458L27.5592 41.123Z" fill="#242424"/>
</svg>
